HIERARCHY
ROOT Hip
{
    OFFSET 0.0 0.0 0.0
    CHANNELS 6 Xposition Yposition Zposition Zrotation Xrotation Yrotation
    JOINT RightHip
    {
        OFFSET -6.542606559244554 0.0 0.0
        CHANNELS 3 Zrotation Xrotation Yrotation
        JOINT RightKnee
        {
            OFFSET 0.0 0.0 -23.02823253995495
            CHANNELS 3 Zrotation Xrotation Yrotation
            JOINT RightAnkle
            {
                OFFSET 0.0 0.0 -27.494365810787585
                CHANNELS 3 Zrotation Xrotation Yrotation
                End Site
                {
                    OFFSET 0.0 -10.997746324315035 0.0
                }
            }
        }
    }
    JOINT LeftHip
    {
        OFFSET 6.542606559244554 0.0 0.0
        CHANNELS 3 Zrotation Xrotation Yrotation
        JOINT LeftKnee
        {
            OFFSET 0.0 0.0 -23.02823253995495
            CHANNELS 3 Zrotation Xrotation Yrotation
            JOINT LeftAnkle
            {
                OFFSET 0.0 0.0 -27.494365810787585
                CHANNELS 3 Zrotation Xrotation Yrotation
                End Site
                {
                    OFFSET 0.0 -10.997746324315035 0.0
                }
            }
        }
    }
    JOINT Spine
    {
        OFFSET 0.0 0.0 19.109671559670222
        CHANNELS 3 Zrotation Xrotation Yrotation
        JOINT Thorax
        {
            OFFSET 0.0 0.0 22.024536852947453
            CHANNELS 3 Zrotation Xrotation Yrotation
            JOINT Neck
            {
                OFFSET 0.0 0.0 2.791699693308295
                CHANNELS 3 Zrotation Xrotation Yrotation
                JOINT Head
                {
                    OFFSET 0.0 0.0 9.454494295974149
                    CHANNELS 3 Zrotation Xrotation Yrotation
                    End Site
                    {
                        OFFSET -3.78179771838966 0.0 0.0
                    }
                }
            }
            JOINT LeftShoulder
            {
                OFFSET 11.790431298389517 0.0 0.0
                CHANNELS 3 Zrotation Xrotation Yrotation
                JOINT LeftElbow
                {
                    OFFSET 22.142788314077933 0.0 0.0
                    CHANNELS 3 Zrotation Xrotation Yrotation
                    JOINT LeftWrist
                    {
                        OFFSET 12.308158142996586 0.0 0.0
                        CHANNELS 3 Zrotation Xrotation Yrotation
                        End Site
                        {
                            OFFSET 4.923263257198634 0.0 0.0
                        }
                    }
                }
            }
            JOINT RightShoulder
            {
                OFFSET -11.790431298389517 0.0 0.0
                CHANNELS 3 Zrotation Xrotation Yrotation
                JOINT RightElbow
                {
                    OFFSET -22.142788314077933 0.0 0.0
                    CHANNELS 3 Zrotation Xrotation Yrotation
                    JOINT RightWrist
                    {
                        OFFSET -12.308158142996586 0.0 0.0
                        CHANNELS 3 Zrotation Xrotation Yrotation
                        End Site
                        {
                            OFFSET -4.923263257198634 0.0 0.0
                        }
                    }
                }
            }
            JOINT Nose
            {
                OFFSET 0.0 0.0 8.852197216540842
                CHANNELS 3 Zrotation Xrotation Yrotation
                End Site
                {
                    OFFSET -3.540878886616338 0.0 0.0
                }
            }
        }
    }
}
MOTION
Frames: 6
Frame Time: 0.03333333333333333
0.8117467980609807 42.39370258709677 8.931472800064475 -1.0537552019136358 -0.16758101526779284 -1.0000739858448697 4.366804353465034 -4.806168315016236 4.890498968346707 0.8544376220600032 12.631624817919 -10.042760029619258 -3.975693351829396e-16 -1.5902773407317584e-15 1.4908850069360235e-16 -3.6453324457702876 -8.099763499713255 -8.292337285957215 -0.28050719280368713 15.43192132103648 13.005037995800956 0.0 0.0 -2.4848083448933725e-17 -2.0343101739756207e-16 3.302409501079556 1.5831623437641353e-16 -1.3447017780416088 -0.01701865073161634 -0.5837609455985883 -1.1388202866579276 -6.9749037583008 -36.342183949434194 0.0 0.0 -1.9505745507412974e-15 -55.931176566190274 54.837985972299755 -6.132365611366024 -1.561737557077928e-14 2.9992969719109144e-15 -95.48223021856066 1.7655625192200634e-31 -6.361109362927033e-15 3.1805546814635164e-15 57.472247240479604 53.715997714550994 6.263301852153213 -4.605265758912642e-15 -4.388079262832971e-15 87.23318714245616 0.0 0.0 5.963540027744094e-16 0.0 0.0 -7.454425034680117e-17
0.813005090941236 42.44711190205124 8.92024174125497 -1.912709350228833 -0.15268678132317648 -1.1688329712060357 5.2088617628088665 -4.839979333100203 4.970100996171004 0.8704334375137404 12.678199706432073 -10.317655227963908 0.0 0.0 1.4908850069360235e-16 -2.7640022889120632 -8.13684960143832 -8.172093464245531 -0.2969263665528556 15.469897789541548 12.851586075522592 0.0 0.0 1.987846675914698e-16 3.9929171893564196e-16 3.3098189864166634 -5.387324934945922e-17 -0.15296715396690483 -0.010815485064191686 -0.3071676675680924 -1.4893969792091535 -6.989753125179083 -36.26920117816065 0.0 0.0 -5.342337941520751e-16 -56.26090064526849 55.00883715902149 -6.388779266810777 -8.469600908533175e-15 9.49319281162275e-15 -96.52283165986114 0.0 0.0 -7.951386703658792e-16 56.52813855126098 54.27954193585206 5.940746068602463 8.99325230812181e-15 -2.2099225483645423e-16 87.1846946105213 -3.1805546814635168e-15 5.517382872562698e-33 -1.987846675914698e-16 0.0 0.0 7.454425034680117e-17
0.8150432396501592 42.53362286307395 8.902049976546115 -1.0794460047373362 -0.15061801613368228 -0.8463143103030514 4.453614933702293 -4.760023250447233 4.892820872406703 0.8847768650822956 12.765342731229822 -10.281835450934837 0.0 0.0 -2.7332891793827095e-16 -3.617224330366412 -8.23810609666259 -8.491973591894798 -0.33354360208242473 15.561189474438113 13.279436232871864 2.155227684594804e-35 1.2424041724466862e-17 -1.987846675914698e-16 2.025779235997944e-16 3.3242041359877104 -1.2784048642388475e-16 -0.9392802925922532 -0.032281622157101016 -0.841692875803982 -1.6536245710677482 -7.027279606944394 -37.3377399005548 0.0 0.0 -2.807833429729511e-15 -56.34690497108781 55.455061411137734 -6.266669275495363 -0.0 0.0 -95.83285891815295 0.0 0.0 0.0 54.502772190086326 55.86561904864181 6.813406110087224 -6.8064102140374075e-15 -2.0621397642120976e-15 86.84059636795516 0.0 0.0 6.957463365701443e-16 3.9756933518293955e-16 3.0173187584327256e-34 8.696829207126802e-17
0.8127281950683072 42.43535882046037 8.922713211833697 -1.887313598651781 -0.1488443982756918 -1.0025323617183926 5.620705911839563 -4.657227219703801 5.033488237767124 0.6207675950051189 12.663828486159233 -10.210570676208098 0.0 0.0 -2.4848083448933725e-17 -2.742454101375781 -8.316280720137451 -8.552882326575046 -0.43748228799057626 15.679239283482223 13.016113850349068 3.9756933518293955e-16 -1.2424041724466861e-17 -1.242404172446686e-16 -9.051189961385592e-18 3.233382995317277 3.2069034002817464e-16 -0.16287893582707683 -0.03425923927569137 -0.775108681278361 -1.902022629696866 -6.994044022476648 -39.38575453196614 7.951386703658792e-16 -2.0000512913039782e-32 -2.882377680076312e-15 -56.474448666674704 55.84490959743487 -6.01645885306443 -2.3701214394085792e-15 -2.1209555498018564e-15 -96.35105268103996 0.0 0.0 -7.951386703658792e-16 53.277778748629316 56.31869401742163 7.303397403487796 4.619505292968869e-15 4.373086230038299e-15 86.86069584050696 0.0 0.0 7.951386703658792e-16 0.0 0.0 1.5530052155583579e-16
0.8127822553640143 42.43765345583918 8.922230689545069 -1.9472180392774943 -0.1430167646266919 -1.030527317171862 5.461526588059728 -4.608109026299109 4.974573538831027 1.134047514269868 12.479739940766677 -10.106391870964423 -3.975693351829396e-16 -3.4483642953516864e-34 9.93923337957349e-17 -2.6547939024543217 -8.476052318254675 -8.667803494275883 -0.5234731088310267 15.908812975423087 13.109111312583865 0.0 0.0 7.454425034680117e-17 1.391289188716334e-17 3.3065272393363188 -4.82033674003455e-16 -0.5156177115959444 -0.03289553946509651 -0.8562288594777651 -1.5703672837884919 -6.953246869575165 -40.180706194157345 -3.975693351829396e-16 -8.01744698669267e-33 2.3108717607508363e-15 -55.991192998506484 56.00250441982569 -6.121985600970056 -6.585969276462878e-15 2.6841477415344544e-15 -97.47734377564541 0.0 0.0 1.5902773407317584e-15 52.92186241107142 56.887598875519394 8.191309312152113 -1.1110211208415227e-14 1.1378110956959948e-14 88.63495384313511 0.0 0.0 -7.951386703658792e-16 0.0 0.0 1.3666445896913547e-16
0.813206494736678 42.45566065799874 8.918444085155535 -1.9731570754678613 -0.15910071775249404 -1.0688496426091403 5.1972402708693455 -4.596540244613262 4.911207762948344 1.1349451143740394 12.569343058677898 -10.076969222154746 0.0 0.0 -3.7272125173400585e-16 -2.9166090879819917 -8.638723156354025 -8.801760603607475 -0.04854832804799615 16.19521679605799 13.136324573937792 0.0 0.0 7.454425034680117e-17 3.969993663895377e-16 3.3709990155056433 2.5217733850790445e-17 -0.5447862499620774 -0.031564913496328464 -0.8716840759768152 -1.5036091859073037 -6.879850380982955 -41.57770510973945 0.0 0.0 2.4972323866178394e-15 -55.89704751955238 55.917935134024916 -6.162639523594239 -1.0782050161251953e-14 7.464460577328955e-15 -97.46253759554483 0.0 0.0 7.951386703658792e-16 52.490445578309306 57.453343195348374 8.114511872719008 2.0336995270404747e-14 6.451618948110011e-15 88.33186364789748 -3.1805546814635168e-15 -6.3611093629270335e-15 1.1927080055488186e-15 0.0 0.0 -9.93923337957349e-17
